#!OML:ASF F:\twosubjects\two\Thursday\Session 1\Rory.ASF
:FULLY-SPECIFIED
:DEGREES
718
root 11.425 18.9184 10.1642 -155.166 -80.6111 157.434
lowerback -6.81578 -0.985381 -5.18345
upperback 0.309468 -0.83828 -3.27075
thorax 4.17485 -0.52708 -0.573958
lowerneck 6.06637 -9.6052 -7.17651
upperneck -4.30417 -13.018 11.3298
head -1.02047 -6.75299 4.74556
rclavicle 3.66354e-015 -4.77083e-015
rhumerus 13.7577 9.56153 -53.5034
rradius 131.823
rwrist 7.72575
rhand -31.749 27.4889
rfingers 7.12502
rthumb -5.00636 -2.43194
lclavicle 3.66354e-015 -4.77083e-015
lhumerus -35.7643 -14.4496 84.6444
lradius 119.769
lwrist -15.007
lhand -16.3971 39.2793
lfingers 7.12502
lthumb 9.81701 69.0305
rfemur -1.49272 13.0535 11.4432
rtibia 9.38179
rfoot -6.58457 -10.1082
rtoes -16.3967
lfemur 1.05214 -4.62112 -20.0474
ltibia 8.2881
lfoot -11.7032 11.8703
ltoes 20.4189
719
root 11.4261 18.9199 10.1634 -154.632 -80.603 156.837
lowerback -6.75367 -1.05948 -5.27021
upperback 0.312373 -0.935445 -3.24854
thorax 4.14757 -0.576791 -0.511498
lowerneck 5.95865 -9.53767 -6.8244
upperneck -3.75015 -12.9385 10.7786
head -0.908039 -6.69166 4.50777
rclavicle -6.9927e-015 -2.46493e-014
rhumerus 13.4573 10.2972 -53.1364
rradius 132.202
rwrist 7.26468
rhand -31.6702 26.9367
rfingers 7.12502
rthumb -4.9303 -2.98598
lclavicle -6.9927e-015 -2.46493e-014
lhumerus -35.76 -14.2662 84.6341
lradius 119.846
lwrist -14.9798
lhand -16.3066 39.4138
lfingers 7.12502
lthumb 9.90436 69.1609
rfemur -1.55784 13.0397 11.3479
rtibia 9.63838
rfoot -6.86643 -10.1161
rtoes -15.2461
lfemur 1.25599 -4.65503 -20.1653
ltibia 8.00425
lfoot -11.5663 11.9084
ltoes 20.2089
720
root 11.4287 18.9204 10.1625 -153.522 -80.5524 155.717
lowerback -6.71728 -1.03844 -5.43455
upperback 0.311565 -0.897821 -3.34047
thorax 4.12638 -0.562169 -0.510953
lowerneck 5.69627 -9.56648 -6.32184
upperneck -2.85507 -13.0039 9.92854
head -0.757098 -6.68829 4.57754
rclavicle 1.00153e-014 -3.02153e-014
rhumerus 12.9882 10.6864 -53.4289
rradius 132.126
rwrist 7.20105
rhand -32.403 26.5739
rfingers 7.12502
rthumb -5.63785 -3.33107
lclavicle 1.00153e-014 -3.02153e-014
lhumerus -35.6421 -14.4097 84.6013
lradius 119.855
lwrist -14.9404
lhand -16.4522 39.3106
lfingers 7.12502
lthumb 9.76387 69.0642
rfemur -1.61609 13.0159 11.1331
rtibia 9.77123
rfoot -7.14039 -10.1036
rtoes -13.899
lfemur 1.28453 -4.68965 -20.364
ltibia 7.89276
lfoot -11.4485 12.041
ltoes 18.1232
721
root 11.4347 18.9204 10.1608 -153.507 -80.485 155.738
lowerback -6.69677 -1.10539 -5.51319
upperback 0.257174 -0.987308 -3.24396
thorax 4.06401 -0.606466 -0.374594
lowerneck 5.49371 -9.3672 -6.82322
upperneck -1.89313 -12.823 10.0669
head -0.379125 -6.58625 4.66329
rclavicle -3.99511e-014 -5.00937e-014
rhumerus 12.8195 11.3798 -54.032
rradius 131.959
rwrist 7.65594
rhand -32.4326 26.0014
rfingers 7.12502
rthumb -5.66638 -3.90279
lclavicle -3.99511e-014 -5.00937e-014
lhumerus -35.6565 -14.0909 84.6769
lradius 119.942
lwrist -14.9099
lhand -16.4005 38.889
lfingers 7.12502
lthumb 9.81381 68.6404
rfemur -1.69385 13.0836 11.0969
rtibia 9.76587
rfoot -7.09999 -10.0938
rtoes -13.7026
lfemur 1.1785 -4.62799 -20.3699
ltibia 7.97258
lfoot -11.5152 12.1206
ltoes 16.8575
722
root 11.4387 18.9194 10.1579 -154.512 -80.4778 156.715
lowerback -6.64523 -1.20734 -5.40756
upperback 0.224117 -1.13823 -3.05585
thorax 4.00734 -0.676691 -0.251525
lowerneck 5.54424 -9.03616 -7.61973
upperneck -1.32567 -12.4683 10.7813
head -0.12119 -6.41609 4.52698
rclavicle 1.77664e-015 -7.95139e-016
rhumerus 12.832 12.1332 -55.1982
rradius 131.8
rwrist 8.0239
rhand -31.4301 25.9472
rfingers 7.12502
rthumb -4.69843 -3.98071
lclavicle 1.77664e-015 -7.95139e-016
lhumerus -35.7852 -13.6322 84.7429
lradius 120.141
lwrist -14.8202
lhand -16.038 38.3881
lfingers 7.12502
lthumb 10.1635 68.1226
rfemur -1.61314 13.1797 11.2877
rtibia 9.61703
rfoot -6.80048 -10.137
rtoes -14.5486
lfemur 1.10288 -4.55064 -20.1881
ltibia 8.19126
lfoot -11.5895 12.121
ltoes 16.2751
723
root 11.4405 18.9156 10.1597 -155.727 -80.5894 157.786
lowerback -6.51537 -1.28071 -5.1776
upperback 0.251662 -1.26141 -2.92655
thorax 3.96502 -0.731366 -0.255077
lowerneck 5.83304 -8.84874 -7.73976
upperneck -1.10927 -12.2564 10.7399
head -0.119489 -6.31472 4.54621
rclavicle 4.96651e-015 -1.03368e-014
rhumerus 12.6846 12.8265 -55.9002
rradius 131.789
rwrist 7.91628
rhand -30.7918 26.4873
rfingers 7.12502
rthumb -4.08214 -3.45334
lclavicle 4.96651e-015 -1.03368e-014
lhumerus -35.8906 -13.4141 84.7225
lradius 120.308
lwrist -14.8678
lhand -15.9273 38.2114
lfingers 7.12502
lthumb 10.2703 67.9406
rfemur -1.33451 13.1898 11.5718
rtibia 9.40877
rfoot -6.52174 -10.2244
rtoes -16.0692
lfemur 1.15117 -4.57761 -19.9629
ltibia 8.43538
lfoot -11.7721 12.0326
ltoes 16.8116
724
root 11.4414 18.913 10.1622 -157.052 -80.7345 158.917
lowerback -6.33201 -1.1601 -4.90651
upperback 0.354975 -1.12641 -2.9574
thorax 3.95839 -0.65883 -0.422026
lowerneck 5.76752 -8.99654 -7.04693
upperneck -0.490215 -12.4546 10.008
head 0.00608266 -6.401 4.65631
rclavicle 2.82321e-014 4.45278e-014
rhumerus 12.1497 12.8838 -56.0393
rradius 131.867
rwrist 7.69863
rhand -30.9687 26.5764
rfingers 7.12502
rthumb -4.25289 -3.36088
lclavicle 2.82321e-014 4.45278e-014
lhumerus -35.7081 -13.8447 84.6923
lradius 120.323
lwrist -14.9497
lhand -16.0971 38.3025
lfingers 7.12502
lthumb 10.1065 68.0398
rfemur -0.945375 13.1735 11.8668
rtibia 9.14479
rfoot -6.49961 -10.1441
rtoes -15.6345
lfemur 1.23321 -4.63772 -19.7369
ltibia 8.72381
lfoot -12.0082 11.9026
ltoes 18.9739
725
root 11.4445 18.9134 10.1637 -156.825 -80.818 158.611
lowerback -6.27989 -1.10009 -4.92863
upperback 0.448915 -1.0426 -2.98602
thorax 4.02432 -0.619508 -0.431772
lowerneck 5.40751 -9.0283 -6.69329
upperneck 0.421718 -12.528 9.84218
head 0.338503 -6.42447 4.47668
rclavicle 6.23299e-015 -1.27222e-014
rhumerus 11.8081 12.9989 -55.9928
rradius 131.916
rwrist 7.44258
rhand -31.5526 26.259
rfingers 7.12502
rthumb -4.81677 -3.66623
lclavicle 6.23299e-015 -1.27222e-014
lhumerus -35.4082 -14.1611 84.753
lradius 120.345
lwrist -14.6734
lhand -16.1215 38.4568
lfingers 7.12502
lthumb 10.0829 68.1952
rfemur -0.674817 13.1006 11.8633
rtibia 8.84086
rfoot -6.47494 -10.0125
rtoes -14.5242
lfemur 1.14012 -4.73402 -19.7572
ltibia 9.00825
lfoot -11.9879 11.8446
ltoes 19.256
726
root 11.45 18.9133 10.1654 -156.544 -80.8316 158.402
lowerback -6.3555 -1.18208 -5.01513
upperback 0.475899 -1.13951 -2.87837
thorax 4.10203 -0.670763 -0.283827
lowerneck 5.22862 -8.86934 -6.83709
upperneck 1.06365 -12.3654 9.85643
head 0.575377 -6.33691 4.48004
rclavicle 1.69417e-014 1.43125e-014
rhumerus 11.6934 13.6077 -55.9325
rradius 132.154
rwrist 7.12887
rhand -31.4349 26.2607
rfingers 7.12502
rthumb -4.70312 -3.66709
lclavicle 1.69417e-014 1.43125e-014
lhumerus -35.1738 -13.9799 84.768
lradius 120.368
lwrist -14.3818
lhand -15.8705 38.2712
lfingers 7.12502
lthumb 10.3251 67.9978
rfemur -0.685167 13.0765 11.8207
rtibia 8.68037
rfoot -6.35786 -10.1262
rtoes -15.5698
lfemur 0.981376 -4.75942 -19.7795
ltibia 9.13101
lfoot -11.9329 11.8219
ltoes 19.1503
727
root 11.4546 18.9132 10.1696 -156.801 -80.8701 158.65
lowerback -6.32685 -1.20613 -4.92697
upperback 0.46517 -1.18096 -2.825
thorax 4.07522 -0.688526 -0.28076
lowerneck 5.54796 -8.77098 -6.80207
upperneck 1.29895 -12.2681 9.8169
head 0.581299 -6.29601 4.47497
rclavicle 1.04781e-014 3.18055e-014
rhumerus 11.1563 14.1726 -56.2034
rradius 132.822
rwrist 6.91999
rhand -30.9499 25.9851
rfingers 7.12502
rthumb -4.23474 -3.95257
lclavicle 1.04781e-014 3.18055e-014
lhumerus -35.0984 -13.9355 84.7543
lradius 120.391
lwrist -14.4035
lhand -15.3454 37.909
lfingers 7.12502
lthumb 10.8316 67.6097
rfemur -0.713283 13.0706 11.8626
rtibia 8.72718
rfoot -6.34023 -10.2346
rtoes -16.6085
lfemur 1.01653 -4.77911 -19.735
ltibia 9.08193
lfoot -11.8822 11.7953
ltoes 20.5498
728
root 11.4591 18.9143 10.1763 -156.437 -81.0583 158.196
lowerback -6.17035 -1.17768 -4.8246
upperback 0.433884 -1.16283 -2.84973
thorax 3.95102 -0.674934 -0.357197
lowerneck 5.98702 -8.72944 -6.69045
upperneck 1.60121 -12.2544 9.73142
head 0.5875 -6.29958 4.44308
rclavicle -1.45206e-014 6.20208e-014
rhumerus 10.1122 14.4824 -56.9823
rradius 132.527
rwrist 7.00172
rhand -31.2412 26.752
rfingers 7.12502
rthumb -4.51604 -3.17987
lclavicle -1.45206e-014 6.20208e-014
lhumerus -35.1481 -14.2112 84.8906
lradius 120.454
lwrist -14.6279
lhand -15.1507 37.8745
lfingers 7.12502
lthumb 11.0194 67.5652
rfemur -0.671245 12.8948 11.8641
rtibia 8.87353
rfoot -6.45562 -10.1721
rtoes -16.3537
lfemur 1.09589 -4.98032 -19.7592
ltibia 8.94044
lfoot -11.4708 12.0576
ltoes 18.0055
729
root 11.4633 18.9147 10.1793 -155.988 -81.1807 157.753
lowerback -6.11083 -1.26384 -4.84489
upperback 0.40533 -1.28288 -2.75137
thorax 3.8941 -0.733551 -0.253495
lowerneck 6.0122 -8.61912 -6.70446
upperneck 2.17172 -12.1441 9.40344
head 0.736512 -6.23955 4.31806
rclavicle 1.88511e-014 1.35174e-014
rhumerus 9.8647 15.078 -57.1874
rradius 132.424
rwrist 6.70014
rhand -30.3001 27.2894
rfingers 7.12502
rthumb -3.60731 -2.65984
lclavicle 1.88511e-014 1.35174e-014
lhumerus -35.1827 -14.0749 85.0694
lradius 120.515
lwrist -14.8886
lhand -15.4134 37.9509
lfingers 7.12502
lthumb 10.7661 67.655
rfemur -0.809561 12.7669 11.8399
rtibia 9.14828
rfoot -6.59523 -10.1383
rtoes -16.1271
lfemur 1.16692 -5.11959 -19.804
ltibia 8.64824
lfoot -11.3009 12.2897
ltoes 14.8561
